<?xml version="1.0" encoding="utf-8"?>
<!-- Generator: Adobe Illustrator 26.1.0, SVG Export Plug-In . SVG Version: 6.00 Build 0)  -->
<svg version="1.1" xmlns="http://www.w3.org/2000/svg" xmlns:xlink="http://www.w3.org/1999/xlink" x="0px" y="0px"
	 viewBox="0 0 259.2 52" style="enable-background:new 0 0 259.2 52;" xml:space="preserve">
<style type="text/css">
	.st0{opacity:0.2;}
	.st1{fill:#FFFFFF;}
	.st2{opacity:0.3;fill:#FFFFFF;}
	.st3{opacity:0.8;fill:#FFFFFF;}
	.st4{opacity:0.6;fill:#FFFFFF;}
</style>
<g id="BG">
</g>
<g id="Elements">
	<g>
		<path class="st1" d="M1.8,50.5v-7.9h11V9.3h-11V1.4H33v7.9H22v33.4h11v7.9H1.8z"/>
		<path class="st1" d="M52.3,15.3h-1.7v35.2h-7.9V1.4H55l12.9,35.2h1.7V1.4h7.9v49.1H65.2L52.3,15.3z"/>
		<path class="st1" d="M98.7,50.5L85.2,1.4h10.1l6.1,24.8l3.6,15.5h1.5l3.7-15.5l6.2-24.8h9.6l-13.4,49.1H98.7z"/>
		<path class="st1" d="M134.2,50.5v-7.9h11V9.3h-11V1.4h31.2v7.9h-11v33.4h11v7.9H134.2z"/>
		<path class="st1" d="M174.1,43.4l5.6-5.8c3.7,4.2,7.9,6.2,12.8,6.2c5.6,0,8.7-2.7,8.7-7.4c0-3.9-2-5.8-7.4-6.6l-5.2-0.8
			c-9.1-1.5-12.6-7-12.6-13.9c0-9.4,6.5-14.6,17.2-14.6c7.7,0,13.3,2.6,16.7,6.8l-5.4,5.8c-2.6-3.1-6.3-5.1-11.2-5.1
			c-5.3,0-8,2.3-8,6.6c0,3.7,2,5.6,7.5,6.5l5.1,0.9c8.4,1.5,12.6,6.4,12.6,13.7c0,9.1-6.4,15.5-18.3,15.5
			C183.8,51.4,177.8,48.2,174.1,43.4z"/>
		<path class="st1" d="M230,50.5L216.6,1.4h10.1l6.1,24.8l3.6,15.5h1.5l3.7-15.5l6.2-24.8h9.6L244,50.5H230z"/>
	</g>
</g>
</svg>
